<svg xmlns="http://www.w3.org/2000/svg" viewBox="0 0 512 512" role="img" aria-label="Gonic music server icon">
  <defs>
    <linearGradient id="bg" x1="0" y1="0" x2="1" y2="1">
      <stop offset="0" stop-color="#141e30"/>
      <stop offset="1" stop-color="#243b55"/>
    </linearGradient>
  </defs>
  <rect width="512" height="512" rx="112" fill="url(#bg)"/>
  <path d="M166 342V154c0-18 12-34 30-38l166-37c22-5 42 12 42 34v193c0 39-36 70-80 70-35 0-64-20-64-46s29-46 64-46c13 0 25 3 36 8V163l-150 34v182c0 39-36 70-80 70-35 0-64-20-64-46s29-46 64-46c13 0 25 3 36 8z" fill="#ffffff"/>
  <path d="M116 118h98M116 154h66M116 190h66" stroke="#82d4ff" stroke-width="22" stroke-linecap="round"/>
</svg>
